<svg preserveAspectRatio="none" width="100%" height="100%" overflow="visible" style="display: block;" viewBox="0 0 90.5727 45.3623" fill="none" xmlns="http://www.w3.org/2000/svg">
<g id="Icon Container">
<path id="Vector" d="M22.5813 44.7895C34.7363 44.7895 44.5898 34.8913 44.5898 22.6811C44.5898 10.471 34.7363 0.572728 22.5813 0.572728C10.4263 0.572728 0.572728 10.471 0.572728 22.6811C0.572728 34.8913 10.4263 44.7895 22.5813 44.7895Z" stroke="var(--stroke-0, white)" stroke-width="1.14546" stroke-miterlimit="10"/>
<path id="Vector_2" d="M22.5811 37.6628C30.8179 37.6628 37.4952 30.9553 37.4952 22.6811C37.4952 14.4068 30.8179 7.69927 22.5811 7.69927C14.3442 7.69927 7.66697 14.4068 7.66697 22.6811C7.66697 30.9553 14.3442 37.6628 22.5811 37.6628Z" stroke="var(--stroke-0, white)" stroke-width="1.14546" stroke-miterlimit="10"/>
<path id="Vector_3" d="M22.6635 22.8275H90.5727" stroke="var(--stroke-0, white)" stroke-width="1.15879" stroke-miterlimit="10"/>
<path id="Vector_4" d="M68.4341 45.2099V0.184967" stroke="var(--stroke-0, white)" stroke-width="1.14546" stroke-miterlimit="10"/>
<path id="Vector_5" d="M84.2796 38.6176L52.5859 6.78012" stroke="var(--stroke-0, white)" stroke-width="1.14546" stroke-miterlimit="10"/>
<path id="Vector_6" d="M84.3526 6.89805L52.6557 38.7355" stroke="var(--stroke-0, white)" stroke-width="1.14546" stroke-miterlimit="10"/>
<path id="Vector_7" d="M89.3376 30.7813L47.4868 14.6542" stroke="var(--stroke-0, white)" stroke-width="1.14546" stroke-miterlimit="10"/>
<path id="Vector_8" d="M76.5518 1.77823L60.4975 43.8157" stroke="var(--stroke-0, white)" stroke-width="1.14546" stroke-miterlimit="10"/>
<path id="Vector_9" d="M76.6719 43.6917L60.2661 1.79108" stroke="var(--stroke-0, white)" stroke-width="1.14546" stroke-miterlimit="10"/>
<path id="Vector_10" d="M89.3437 14.6386L47.6323 31.1221" stroke="var(--stroke-0, white)" stroke-width="1.14546" stroke-miterlimit="10"/>
</g>
</svg>
